<svg width="90" height="90" viewBox="0 0 90 90" fill="none" xmlns="http://www.w3.org/2000/svg">
<circle cx="45" cy="45" r="45" fill="#575FC8"/>
<mask id="mask0_2722_5793" style="mask-type:alpha" maskUnits="userSpaceOnUse" x="7" y="37" width="36" height="36">
<rect x="7" y="37" width="35.5508" height="35.5508" fill="#D9D9D9"/>
</mask>
<g mask="url(#mask0_2722_5793)">
<path d="M18.2946 46.48L22.4422 41.1104C22.7385 40.7154 23.0903 40.4253 23.4976 40.2401C23.905 40.055 24.3308 39.9624 24.7752 39.9624C25.2196 39.9624 25.6455 40.055 26.0528 40.2401C26.4602 40.4253 26.812 40.7154 27.1082 41.1104L31.2558 46.48L37.5513 48.5909C38.1932 48.7884 38.6993 49.1525 39.0696 49.6833C39.4399 50.2141 39.6251 50.8005 39.6251 51.4423C39.6251 51.7386 39.5819 52.0349 39.4955 52.3311C39.4091 52.6274 39.2671 52.9113 39.0696 53.1828L34.9961 58.9599L35.1442 65.0331C35.1689 65.8972 34.885 66.6255 34.2925 67.218C33.7 67.8105 33.0087 68.1068 32.2187 68.1068C32.1693 68.1068 31.8977 68.0697 31.404 67.9957L24.7752 66.1441L18.1465 67.9957C18.023 68.0451 17.8873 68.0759 17.7391 68.0883C17.591 68.1006 17.4552 68.1068 17.3318 68.1068C16.5418 68.1068 15.8505 67.8105 15.258 67.218C14.6655 66.6255 14.3816 65.8972 14.4062 65.0331L14.5544 58.9228L10.5179 53.1828C10.3204 52.9113 10.1784 52.6274 10.092 52.3311C10.0056 52.0349 9.9624 51.7386 9.9624 51.4423C9.9624 50.8251 10.1414 50.2511 10.4994 49.7204C10.8573 49.1896 11.3573 48.8131 11.9992 48.5909L18.2946 46.48Z" fill="white"/>
</g>
<mask id="mask1_2722_5793" style="mask-type:alpha" maskUnits="userSpaceOnUse" x="28" y="9" width="36" height="36">
<rect x="28" y="9" width="35.5508" height="35.5508" fill="#D9D9D9"/>
</mask>
<g mask="url(#mask1_2722_5793)">
<path d="M39.2946 18.48L43.4422 13.1104C43.7385 12.7154 44.0903 12.4253 44.4976 12.2401C44.905 12.055 45.3308 11.9624 45.7752 11.9624C46.2196 11.9624 46.6455 12.055 47.0528 12.2401C47.4602 12.4253 47.812 12.7154 48.1082 13.1104L52.2558 18.48L58.5513 20.5909C59.1932 20.7884 59.6993 21.1525 60.0696 21.6833C60.4399 22.2141 60.6251 22.8005 60.6251 23.4423C60.6251 23.7386 60.5819 24.0349 60.4955 24.3311C60.4091 24.6274 60.2671 24.9113 60.0696 25.1828L55.9961 30.9599L56.1442 37.0331C56.1689 37.8972 55.885 38.6255 55.2925 39.218C54.7 39.8105 54.0087 40.1068 53.2187 40.1068C53.1693 40.1068 52.8977 40.0697 52.404 39.9957L45.7752 38.1441L39.1465 39.9957C39.023 40.0451 38.8873 40.0759 38.7391 40.0883C38.591 40.1006 38.4552 40.1068 38.3318 40.1068C37.5418 40.1068 36.8505 39.8105 36.258 39.218C35.6655 38.6255 35.3816 37.8972 35.4062 37.0331L35.5544 30.9228L31.5179 25.1828C31.3204 24.9113 31.1784 24.6274 31.092 24.3311C31.0056 24.0349 30.9624 23.7386 30.9624 23.4423C30.9624 22.8251 31.1414 22.2511 31.4994 21.7204C31.8573 21.1896 32.3573 20.8131 32.9992 20.5909L39.2946 18.48Z" fill="white"/>
</g>
<mask id="mask2_2722_5793" style="mask-type:alpha" maskUnits="userSpaceOnUse" x="49" y="37" width="36" height="36">
<rect x="49" y="37" width="35.5508" height="35.5508" fill="#D9D9D9"/>
</mask>
<g mask="url(#mask2_2722_5793)">
<path d="M60.2946 46.48L64.4422 41.1104C64.7385 40.7154 65.0903 40.4253 65.4976 40.2401C65.905 40.055 66.3308 39.9624 66.7752 39.9624C67.2196 39.9624 67.6455 40.055 68.0528 40.2401C68.4602 40.4253 68.812 40.7154 69.1082 41.1104L73.2558 46.48L79.5513 48.5909C80.1932 48.7884 80.6993 49.1525 81.0696 49.6833C81.4399 50.2141 81.6251 50.8005 81.6251 51.4423C81.6251 51.7386 81.5819 52.0349 81.4955 52.3311C81.4091 52.6274 81.2671 52.9113 81.0696 53.1828L76.9961 58.9599L77.1442 65.0331C77.1689 65.8972 76.885 66.6255 76.2925 67.218C75.7 67.8105 75.0087 68.1068 74.2187 68.1068C74.1693 68.1068 73.8977 68.0697 73.404 67.9957L66.7752 66.1441L60.1465 67.9957C60.023 68.0451 59.8873 68.0759 59.7391 68.0883C59.591 68.1006 59.4552 68.1068 59.3318 68.1068C58.5418 68.1068 57.8505 67.8105 57.258 67.218C56.6655 66.6255 56.3816 65.8972 56.4062 65.0331L56.5544 58.9228L52.5179 53.1828C52.3204 52.9113 52.1784 52.6274 52.092 52.3311C52.0056 52.0349 51.9624 51.7386 51.9624 51.4423C51.9624 50.8251 52.1414 50.2511 52.4994 49.7204C52.8573 49.1896 53.3573 48.8131 53.9992 48.5909L60.2946 46.48Z" fill="white"/>
</g>
</svg>
