<svg width="90" height="90" viewBox="0 0 90 90" fill="none" xmlns="http://www.w3.org/2000/svg">
<circle cx="45" cy="45" r="45" fill="white"/>
<path fill-rule="evenodd" clip-rule="evenodd" d="M39.071 63.339C39.4013 62.7725 39.5292 62.0891 39.9047 60.2209C40.0805 59.3461 40.3517 57.0299 40.4322 53.7476C40.7121 42.3226 41.3113 19.9815 51.3333 13.3333L42.8937 61.2706C42.7567 62.0888 42.6623 62.9707 43.4266 63.5188C46.4384 64.1636 48.6959 66.8287 48.6959 70.0183C48.6959 73.6901 45.7046 76.6666 42.0146 76.6666C38.3246 76.6666 35.3333 73.6901 35.3333 70.0183C35.3333 67.9313 36.2997 66.0689 37.8116 64.85C38.4672 64.1176 38.8251 63.7607 39.071 63.339ZM47.0256 70.0183C47.0256 72.7721 44.7821 75.0045 42.0146 75.0045C39.2471 75.0045 37.0036 72.7721 37.0036 70.0183C37.0036 67.2645 39.2471 65.0321 42.0146 65.0321C44.7821 65.0321 47.0256 67.2645 47.0256 70.0183Z" fill="#575FC8"/>
<path fill-rule="evenodd" clip-rule="evenodd" d="M26.8437 48.0559C27.424 47.7462 28.1146 47.6428 30.0031 47.3343C30.8874 47.1899 33.222 47.0015 36.5196 47.0381C47.9976 47.1656 70.4444 47.3632 77.4731 37.5901L29.0554 44.3115C28.2293 44.4192 27.3407 44.482 26.8176 43.6991C26.2772 40.6679 23.6821 38.3181 20.4804 38.2045C16.7948 38.0736 13.701 40.9553 13.5701 44.6409C13.4393 48.3265 16.321 51.4204 20.0066 51.5512C22.1015 51.6256 24.0053 50.7266 25.2823 49.2599C26.0408 48.6313 26.4117 48.2865 26.8437 48.0559ZM20.4212 39.8728C17.657 39.7747 15.3366 41.936 15.2385 44.7002C15.1404 47.4644 17.3016 49.7847 20.0658 49.8829C22.83 49.981 25.1504 47.8197 25.2485 45.0555C25.3466 42.2913 23.1854 39.9709 20.4212 39.8728Z" fill="#575FC8"/>
<path fill-rule="evenodd" clip-rule="evenodd" d="M44.8612 58.0549L60.2733 73.467C61.8573 75.0511 64.4256 75.0511 66.0096 73.467L75.6181 63.8586C76.0141 63.4626 76.0141 62.8205 75.6181 62.4245C75.2221 62.0285 74.58 62.0285 74.184 62.4245L68.591 68.0175C67.3238 69.2847 65.2691 69.2847 64.0019 68.0175L71.8894 60.1299C72.2854 59.7339 72.2854 59.0919 71.8894 58.6959C71.4934 58.2998 70.8514 58.2998 70.4553 58.6958L62.5678 66.5834L60.2733 64.2888L68.1608 56.4013C68.5568 56.0053 68.5568 55.3632 68.1608 54.9672C67.7648 54.5712 67.1227 54.5712 66.7267 54.9672L58.8392 62.8547L56.5446 60.5602L64.4321 52.6726C64.8281 52.2766 64.8281 51.6346 64.4321 51.2385C64.0361 50.8425 63.3941 50.8425 62.998 51.2385L55.1105 59.1261L52.816 56.8315L60.7035 48.944C61.0995 48.548 61.0995 47.9059 60.7035 47.5099C60.6292 47.4357 60.5464 47.3753 60.4581 47.3289C60.0684 47.3865 59.6775 47.4415 59.2856 47.494L59.2694 47.5099L51.3819 55.3974L49.0873 53.1029L54.1416 48.0486C53.1076 48.1354 52.076 48.2086 51.0519 48.27L47.6532 51.6688L46.2302 50.2458L44.8612 58.0549ZM48.1861 39.0895L49.5175 37.758C49.9135 37.362 49.9135 36.72 49.5175 36.3239C49.2997 36.1061 49.0073 36.0081 48.7225 36.0299L48.1861 39.0895ZM41.378 43.0293C41.375 43.074 41.372 43.1186 41.3691 43.1632L41.2241 43.1833L41.378 43.0293ZM42.1576 34.7925C42.0214 35.8727 41.9006 36.9522 41.7934 38.0249L37.9013 41.9169L39.4184 43.434L31.359 44.5528L16.1031 29.2969C14.519 27.7128 14.519 25.1445 16.1031 23.5605L25.7115 13.952C26.1075 13.556 26.7496 13.556 27.1456 13.952C27.5416 14.3481 27.5416 14.9901 27.1456 15.3861L21.5526 20.9791C20.2854 22.2464 20.2854 24.301 21.5526 25.5682L29.4402 17.6807C29.8362 17.2847 30.4783 17.2847 30.8743 17.6807C31.2703 18.0767 31.2703 18.7188 30.8743 19.1148L22.9867 27.0023L25.2813 29.2969L33.1688 21.4093C33.5648 21.0133 34.2069 21.0133 34.6029 21.4093C34.9989 21.8054 34.9989 22.4474 34.6029 22.8434L26.7154 30.731L29.01 33.0255L36.8975 25.138C37.2935 24.742 37.9356 24.742 38.3316 25.138C38.7276 25.534 38.7276 26.1761 38.3316 26.5721L30.444 34.4596L32.7386 36.7542L40.6261 28.8666C41.0221 28.4706 41.6642 28.4706 42.0602 28.8666C42.4562 29.2627 42.4562 29.9047 42.0602 30.3007L34.1727 38.1883L36.4673 40.4828L42.1576 34.7925ZM41.083 48.5676C41.0024 50.5455 40.9497 52.4074 40.9067 54.1005L35.3505 48.5443C37.0935 48.5626 39.0242 48.5779 41.083 48.5676ZM53.2462 41.4867L53.214 41.5188L49.8835 41.9812L51.8121 40.0526C52.2081 39.6566 52.8502 39.6566 53.2462 40.0526C53.6422 40.4486 53.6422 41.0907 53.2462 41.4867Z" fill="#575FC8"/>
</svg>
