<svg width="90" height="90" viewBox="0 0 90 90" fill="none" xmlns="http://www.w3.org/2000/svg">
<circle cx="45" cy="45" r="45" fill="#575FC8"/>
<path d="M47.1875 26.4063C47.1875 24.892 47.6365 23.4117 48.4778 22.1527C49.3191 20.8936 50.5148 19.9123 51.9138 19.3328C53.3128 18.7533 54.8522 18.6017 56.3374 18.8971C57.8226 19.1925 59.1868 19.9217 60.2575 20.9925C61.3283 22.0632 62.0575 23.4274 62.3529 24.9126C62.6483 26.3978 62.4967 27.9372 61.9172 29.3362C61.3377 30.7352 60.3564 31.9309 59.0973 32.7722C57.8383 33.6135 56.358 34.0625 54.8438 34.0625C52.8139 34.0602 50.8678 33.2529 49.4325 31.8175C47.9972 30.3822 47.1898 28.4361 47.1875 26.4063ZM29.6875 39.5312C29.6875 38.017 29.2385 36.5367 28.3972 35.2777C27.5559 34.0186 26.3602 33.0373 24.9612 32.4578C23.5622 31.8783 22.0228 31.7267 20.5376 32.0221C19.0524 32.3175 17.6882 33.0467 16.6175 34.1175C15.5467 35.1882 14.8175 36.5524 14.5221 38.0376C14.2267 39.5228 14.3783 41.0622 14.9578 42.4612C15.5373 43.8602 16.5186 45.0559 17.7777 45.8972C19.0367 46.7385 20.517 47.1875 22.0313 47.1875C24.0611 47.1852 26.0072 46.3779 27.4425 44.9425C28.8779 43.5072 29.6852 41.5611 29.6875 39.5312ZM35.1563 34.0625C36.6705 34.0625 38.1508 33.6135 39.4098 32.7722C40.6689 31.9309 41.6502 30.7352 42.2297 29.3362C42.8092 27.9372 42.9608 26.3978 42.6654 24.9126C42.37 23.4274 41.6408 22.0632 40.57 20.9925C39.4993 19.9217 38.1351 19.1925 36.6499 18.8971C35.1647 18.6017 33.6253 18.7533 32.2263 19.3328C30.8273 19.9123 29.6316 20.8936 28.7903 22.1527C27.949 23.4117 27.5 24.892 27.5 26.4063C27.5023 28.4361 28.3096 30.3822 29.745 31.8175C31.1803 33.2529 33.1264 34.0602 35.1563 34.0625ZM61.1579 50.6997C58.9183 49.4604 57.262 47.383 56.5527 44.9236C55.8258 42.4221 54.3066 40.224 52.2233 38.6599C50.1401 37.0958 47.6055 36.2501 45.0005 36.25C42.3954 36.2499 39.8607 37.0953 37.7773 38.6592C35.6939 40.2231 34.1745 42.421 33.4473 44.9224C32.7409 47.3786 31.0888 49.4541 28.8536 50.6933C26.3851 52.0315 24.5257 54.2676 23.6603 56.9387C22.7948 59.6099 22.9896 62.5115 24.2043 65.043C25.4189 67.5745 27.5605 69.542 30.1857 70.5383C32.8108 71.5345 35.7185 71.4832 38.3069 70.395C42.5847 68.6271 47.3881 68.6234 51.6685 70.3848C54.2555 71.4808 57.1649 71.5393 59.7939 70.5485C62.4229 69.5576 64.5698 67.5932 65.7898 65.0624C67.0098 62.5316 67.2093 59.6284 66.347 56.9545C65.4847 54.2806 63.6266 52.0409 61.1579 50.6997ZM67.9688 31.875C66.4545 31.875 64.9742 32.324 63.7152 33.1653C62.4561 34.0066 61.4748 35.2023 60.8953 36.6013C60.3158 38.0003 60.1642 39.5397 60.4596 41.0249C60.755 42.5101 61.4842 43.8743 62.555 44.945C63.6257 46.0158 64.9899 46.745 66.4751 47.0404C67.9603 47.3358 69.4997 47.1842 70.8987 46.6047C72.2977 46.0252 73.4934 45.0439 74.3347 43.7848C75.176 42.5258 75.625 41.0455 75.625 39.5312C75.6227 37.5014 74.8154 35.5553 73.38 34.12C71.9447 32.6846 69.9986 31.8773 67.9688 31.875Z" fill="white"/>
</svg>
