<svg width="90" height="90" viewBox="0 0 90 90" fill="none" xmlns="http://www.w3.org/2000/svg">
<circle cx="45" cy="45" r="45" fill="white"/>
<path d="M75.2313 40.2629L50.1456 15.1773C47.3071 12.3374 42.6885 12.3374 39.8528 15.1773L14.7671 40.2629C13.7446 41.2854 13.7446 42.9427 14.7671 43.9653C15.7897 44.9878 17.4483 44.9878 18.4709 43.9653L43.5537 18.881C44.3265 18.1096 45.6692 18.1096 46.4419 18.881L71.5289 43.968C72.0381 44.4786 72.7088 44.7353 73.3794 44.7353C74.0501 44.7353 74.7207 44.4772 75.2313 43.968C76.2538 42.9441 76.2538 41.2854 75.2313 40.2629Z" fill="#575FC8"/>
<path d="M46.2321 23.7342C45.5545 23.0567 44.452 23.0567 43.7744 23.7342L22.6105 44.9092C22.2849 45.2348 22.1138 45.6764 22.1138 46.1359V69.1448C22.1138 71.2257 23.7752 72.9534 25.8534 72.9534H64.1449C66.2244 72.9534 67.93 71.2257 67.93 69.1448V46.1373C67.93 45.6778 67.7368 45.2376 67.4125 44.9106L46.2321 23.7342ZM56.5926 55.6367C56.4366 55.7926 48.825 63.3698 46.0196 66.1586C45.4552 66.7203 44.5403 66.7203 43.9759 66.1586C41.1719 63.3698 33.5602 55.794 33.4043 55.6367C30.196 52.4298 30.196 47.2274 33.4043 44.0205C36.6044 40.8232 41.7887 40.8149 44.9971 43.997C48.2068 40.8136 53.3911 40.8205 56.5898 44.0205C59.7995 47.2274 59.7995 52.4284 56.5926 55.6367Z" fill="#575FC8"/>
</svg>
