<svg width="90" height="90" viewBox="0 0 90 90" fill="none" xmlns="http://www.w3.org/2000/svg">
<circle cx="45" cy="45" r="45" fill="#575FC8"/>
<path d="M64.41 40.3845C64.3491 41.6205 63.4114 43.1465 61.9002 44.6131V63.9403C61.8985 64.438 61.7024 64.8599 61.3712 65.1895C61.0383 65.5125 60.6065 65.7036 60.0989 65.7069H28.6018C28.0976 65.7036 27.6641 65.5124 27.3312 65.1895C27 64.8599 26.8056 64.438 26.8039 63.9403V33.0544C26.8056 32.5584 27 32.1348 27.3312 31.8052C27.6641 31.4822 28.0976 31.2911 28.6018 31.2878H45.3301C46.6831 29.5113 48.2601 27.6919 50.0466 26.0243C50.0548 26.0144 50.0614 26.0044 50.0697 25.9946H28.6018C26.6243 25.9929 24.8066 26.7889 23.5129 28.0612C22.2127 29.3335 21.4019 31.1132 21.4036 33.0545V63.9404C21.4019 65.8816 22.2127 67.6648 23.5129 68.9337C24.8065 70.2058 26.6243 71 28.6018 71H60.0991C62.0799 71 63.8977 70.2058 65.1912 68.9335C66.4882 67.6646 67.3006 65.8814 67.2989 63.9402V38.4597C67.2989 38.4597 67.2857 38.4432 67.2643 38.4267C66.4453 39.1288 65.4911 39.7977 64.41 40.3845Z" fill="white"/>
<path d="M72.5296 17C72.5296 17 70.875 19.472 60.0679 23.1287C49.048 26.8581 42.2649 42.0291 42.2649 42.0291C40.6319 45.1372 34.1768 58.0504 34.1768 58.0504C32.3987 61.3859 35.6566 63.3569 37.5682 59.9126C41.2316 53.301 43.5964 47.2596 49.1665 47.0882C57.2925 46.8377 62.8494 39.7417 61.1009 40.0713C58.8003 41.0732 53.728 40.1471 56.7157 39.6857C63.8876 39.1106 68.3074 33.7201 66.8671 33.3543C64.3244 34.3332 61.9529 33.4038 61.4882 33.1235C74.1462 31.5843 72.5296 17 72.5296 17Z" fill="white"/>
</svg>
