<svg width="90" height="90" viewBox="0 0 90 90" fill="none" xmlns="http://www.w3.org/2000/svg">
<circle cx="45" cy="45" r="45" fill="white"/>
<path d="M64.4098 40.3845C64.3488 41.6205 63.4111 43.1465 61.8999 44.6131V63.9403C61.8983 64.438 61.7022 64.8599 61.3709 65.1895C61.0381 65.5125 60.6063 65.7036 60.0986 65.7069H28.6016C28.0973 65.7036 27.6638 65.5124 27.331 65.1895C26.9997 64.8599 26.8053 64.438 26.8036 63.9403V33.0544C26.8053 32.5584 26.9997 32.1348 27.331 31.8052C27.6638 31.4822 28.0973 31.2911 28.6016 31.2878H45.3299C46.6828 29.5113 48.2599 27.6919 50.0463 26.0243C50.0545 26.0144 50.0612 26.0044 50.0694 25.9946H28.6016C26.624 25.9929 24.8064 26.7889 23.5127 28.0612C22.2125 29.3335 21.4016 31.1132 21.4033 33.0545V63.9404C21.4016 65.8816 22.2125 67.6648 23.5127 68.9337C24.8063 70.2058 26.624 71 28.6016 71H60.0989C62.0797 71 63.8974 70.2058 65.191 68.9335C66.4879 67.6646 67.3004 65.8814 67.2987 63.9402V38.4597C67.2987 38.4597 67.2855 38.4432 67.2641 38.4267C66.445 39.1288 65.4908 39.7977 64.4098 40.3845Z" fill="#575FC8"/>
<path d="M72.5294 17C72.5294 17 70.8748 19.472 60.0676 23.1287C49.0477 26.8581 42.2647 42.0291 42.2647 42.0291C40.6316 45.1372 34.1765 58.0504 34.1765 58.0504C32.3984 61.3859 35.6563 63.3569 37.568 59.9126C41.2313 53.301 43.5961 47.2596 49.1663 47.0882C57.2923 46.8377 62.8491 39.7417 61.1007 40.0713C58.8001 41.0732 53.7278 40.1471 56.7155 39.6857C63.8874 39.1106 68.3071 33.7201 66.8669 33.3543C64.3241 34.3332 61.9527 33.4038 61.488 33.1235C74.146 31.5843 72.5294 17 72.5294 17Z" fill="#575FC8"/>
</svg>
