<svg width="1194" height="350" viewBox="0 0 1194 350" fill="none" xmlns="http://www.w3.org/2000/svg">
<rect width="1194" height="350" fill="#00A99D" fill-opacity="0.12"/>
<path fill-rule="evenodd" clip-rule="evenodd" d="M141.463 119.092C149.457 126.382 161.09 129.176 172.028 125.376C187.93 119.851 196.342 102.481 190.817 86.5794C187.139 75.9927 178.211 68.7255 167.961 66.6805C167.94 66.6198 167.919 66.5595 167.898 66.4995C167.581 65.5881 167.264 64.5816 166.947 63.4998C173.673 55.5449 176.144 44.3455 172.478 33.7926C166.953 17.8907 149.584 9.47838 133.682 15.0031C120.247 19.6706 112.158 32.7926 113.303 46.3413C110.748 47.392 108.188 48.4288 105.652 49.436C105.547 49.0554 105.429 48.6756 105.298 48.2973C102.075 39.0212 91.9426 34.114 82.6665 37.3367C73.3905 40.5595 68.4833 50.6917 71.706 59.9678C71.8392 60.3511 71.9841 60.7269 72.1403 61.095C69.5284 61.8789 66.8789 62.6545 64.2244 63.416C56.726 52.0628 42.235 46.774 28.7929 51.4441C12.891 56.9688 4.47868 74.3384 10.0034 90.2402C13.597 100.584 22.2025 107.759 32.1558 109.99C32.589 111.097 32.9928 112.183 33.3602 113.241C33.4169 113.404 33.4733 113.568 33.5295 113.734C27.0647 121.66 24.7395 132.656 28.3427 143.027C33.8674 158.929 51.237 167.341 67.1388 161.816C78.0768 158.016 85.4713 148.612 87.224 137.936L141.463 119.092ZM95.0145 51.8699C95.1902 52.3757 95.3036 52.888 95.3587 53.3986C95.3585 53.3986 95.3583 53.3987 95.358 53.3988C95.6948 56.5189 93.8549 59.5715 90.7638 60.6454C87.167 61.895 83.2381 59.9922 81.9885 56.3954C80.7389 52.7985 82.6417 48.8697 86.2385 47.6201C86.3511 47.5809 86.4641 47.5449 86.5772 47.5119C86.6902 47.479 86.8034 47.4491 86.9167 47.4222C90.3166 46.6147 93.8429 48.4978 95.0145 51.8699Z" fill="#00A99D" fill-opacity="0.12"/>
<path fill-rule="evenodd" clip-rule="evenodd" d="M708.373 291.955C710.992 303.572 719.728 313.427 731.994 316.893C749.827 321.932 768.368 311.561 773.407 293.728C776.762 281.855 773.286 269.668 765.325 261.361C765.343 261.293 765.362 261.226 765.381 261.159C765.67 260.137 766.018 259.029 766.414 257.853C777.498 254.915 786.79 246.366 790.134 234.531C795.173 216.698 784.802 198.157 766.969 193.118C751.903 188.861 736.331 195.603 728.823 208.551C725.855 207.889 722.891 207.21 719.966 206.52C720.112 206.111 720.245 205.694 720.365 205.269C723.304 194.867 717.254 184.051 706.852 181.112C696.45 178.172 685.634 184.222 682.694 194.624C682.573 195.054 682.467 195.485 682.376 195.916C679.524 194.976 676.644 194.006 673.768 193.019C674.159 178.047 664.416 164.139 649.342 159.88C631.509 154.841 612.968 165.212 607.928 183.045C604.65 194.645 607.893 206.545 615.469 214.833C615.162 216.104 614.842 217.339 614.507 218.525C614.455 218.708 614.402 218.892 614.349 219.076C603.518 222.154 594.488 230.611 591.201 242.241C586.162 260.074 596.534 278.615 614.366 283.654C626.633 287.121 639.234 283.296 647.546 274.766L708.373 291.955ZM699.863 192.541C697.237 193.135 695.01 195.11 694.226 197.883C694.065 198.453 693.974 199.025 693.947 199.592C693.947 199.592 693.948 199.593 693.949 199.593C693.785 203.04 696.004 206.271 699.468 207.25C703.501 208.39 707.695 206.044 708.835 202.01C709.975 197.977 707.629 193.783 703.595 192.643C702.444 192.318 701.281 192.276 700.178 192.477C700.073 192.496 699.968 192.518 699.863 192.541Z" fill="#00A99D" fill-opacity="0.12"/>
<path fill-rule="evenodd" clip-rule="evenodd" d="M1020.24 118.008C1024.98 123.006 1032.24 125.317 1039.36 123.409C1049.71 120.635 1055.85 109.994 1053.08 99.6423C1051.23 92.7501 1045.9 87.7234 1039.48 85.952L1039.45 85.8349C1039.29 85.2416 1039.14 84.5879 1038.99 83.8865C1043.62 79.1459 1045.71 72.1487 1043.87 65.2786C1041.1 54.9267 1030.46 48.7833 1020.1 51.5571C1011.36 53.9006 1005.62 61.8591 1005.72 70.5148C1004.05 71.0639 1002.37 71.6039 1000.72 72.1262C1000.67 71.8799 1000.61 71.6335 1000.54 71.3874C998.927 65.3487 992.72 61.7651 986.681 63.3832C980.643 65.0012 977.059 71.2082 978.677 77.2469C978.744 77.4963 978.818 77.7415 978.901 77.9823C977.205 78.3596 975.486 78.7299 973.765 79.091C969.528 71.5362 960.571 67.5091 951.82 69.8538C941.468 72.6276 935.325 83.2682 938.099 93.6202C939.903 100.354 945.036 105.307 951.253 107.183C951.477 107.906 951.684 108.614 951.868 109.303C951.896 109.409 951.925 109.516 951.953 109.623C947.482 114.358 945.498 121.232 947.307 127.984C950.081 138.336 960.721 144.479 971.073 141.705C978.194 139.797 983.323 134.167 984.929 127.47L1020.24 118.008ZM987.07 70.7364C985.616 71.7682 984.882 73.6304 985.371 75.4531C985.459 75.7836 985.583 76.0951 985.738 76.3847C985.738 76.3846 985.739 76.3845 985.739 76.3844C986.678 78.1461 988.737 79.0948 990.748 78.556C993.089 77.9286 994.479 75.5218 993.851 73.1803C993.224 70.8387 990.817 69.4492 988.476 70.0766C987.956 70.2157 987.484 70.4424 987.07 70.7364Z" fill="#00A99D" fill-opacity="0.12"/>
<path fill-rule="evenodd" clip-rule="evenodd" d="M276.272 283.553C277.556 289.647 282.052 294.865 288.44 296.768C297.729 299.534 307.501 294.247 310.267 284.959C312.109 278.776 310.381 272.378 306.28 267.975L306.311 267.869C306.47 267.336 306.66 266.759 306.876 266.147C312.693 264.692 317.614 260.29 319.45 254.127C322.217 244.838 316.93 235.066 307.642 232.3C299.795 229.963 291.602 233.374 287.581 240.089C286.034 239.721 284.489 239.344 282.965 238.962C283.044 238.749 283.117 238.532 283.182 238.311C284.796 232.893 281.712 227.192 276.294 225.579C270.876 223.965 265.176 227.049 263.562 232.467C263.495 232.691 263.436 232.915 263.386 233.14C261.901 232.628 260.402 232.099 258.906 231.562C259.22 223.735 254.228 216.391 246.376 214.053C237.088 211.286 227.316 216.573 224.55 225.861C222.75 231.903 224.358 238.15 228.259 242.54C228.089 243.203 227.912 243.846 227.728 244.463C227.7 244.559 227.671 244.654 227.642 244.75C221.955 246.28 217.171 250.636 215.366 256.694C212.6 265.982 217.887 275.754 227.175 278.52C233.564 280.423 240.182 278.516 244.591 274.117L276.272 283.553ZM277.177 236.522C277.089 236.817 276.969 237.095 276.823 237.352C276.823 237.352 276.823 237.352 276.822 237.352C275.93 238.923 274.044 239.73 272.239 239.193C270.138 238.567 268.942 236.357 269.568 234.256C270.135 232.351 272.004 231.191 273.913 231.456C273.96 231.463 274.006 231.47 274.053 231.478C274.204 231.504 274.355 231.54 274.506 231.585C276.606 232.211 277.802 234.421 277.177 236.522Z" fill="#00A99D" fill-opacity="0.12"/>
<path fill-rule="evenodd" clip-rule="evenodd" d="M464.994 110.417C466 115.193 469.523 119.281 474.529 120.772C481.806 122.939 489.463 118.797 491.631 111.519C493.074 106.675 491.72 101.662 488.507 98.2125L488.532 98.1287C488.656 97.7115 488.805 97.2592 488.975 96.7796C493.532 95.6391 497.388 92.1903 498.826 87.361C500.994 80.0834 496.851 72.4266 489.574 70.259C483.425 68.4277 477.006 71.1003 473.855 76.3623C472.644 76.0739 471.434 75.7791 470.241 75.4797C470.303 75.3126 470.36 75.1424 470.412 74.9691C471.676 70.7238 469.26 66.2573 465.014 64.9929C460.769 63.7285 456.303 66.1449 455.038 70.3902C454.986 70.5658 454.94 70.7418 454.9 70.918C453.736 70.5163 452.561 70.1018 451.387 69.6807C451.634 63.5484 447.722 57.7938 441.57 55.9615C434.293 53.794 426.636 57.9364 424.468 65.2141C423.058 69.9485 424.318 74.8434 427.375 78.2831C427.242 78.8021 427.104 79.306 426.96 79.7898C426.938 79.8642 426.915 79.9389 426.892 80.0139C422.436 81.212 418.686 84.6251 417.272 89.3722C415.105 96.6498 419.247 104.307 426.525 106.474C431.531 107.965 436.716 106.471 440.171 103.024L464.994 110.417ZM465.707 73.5673C465.638 73.7991 465.544 74.0168 465.429 74.2185C465.429 74.2183 465.428 74.2181 465.427 74.2179C464.728 75.4486 463.25 76.0811 461.836 75.6598C460.19 75.1695 459.253 73.4376 459.743 71.7915C460.185 70.3074 461.636 69.3997 463.124 69.5947C463.287 69.616 463.451 69.6505 463.614 69.699C465.26 70.1893 466.197 71.9212 465.707 73.5673Z" fill="#00A99D" fill-opacity="0.12"/>
<path fill-rule="evenodd" clip-rule="evenodd" d="M1033.2 291.539C1027.4 296.563 1024.25 304.393 1025.57 312.529C1027.6 325.003 1039.35 333.474 1051.83 331.449C1060.41 330.056 1067.09 324.06 1069.77 316.392L1112.32 309.485C1117.29 315.911 1125.53 319.485 1134.11 318.092C1146.58 316.067 1155.05 304.313 1153.03 291.839C1151.68 283.533 1146.02 277.003 1138.7 274.163L1138.68 274.021C1138.56 273.306 1138.46 272.521 1138.37 271.681C1144.37 266.67 1147.65 258.708 1146.31 250.43C1144.28 237.955 1132.53 229.484 1120.05 231.509C1109.51 233.22 1101.83 241.875 1100.92 252.041C1098.9 252.487 1096.88 252.921 1094.87 253.337C1094.84 253.042 1094.81 252.746 1094.76 252.449C1093.58 245.173 1086.72 240.231 1079.44 241.413C1072.17 242.594 1067.23 249.45 1068.41 256.727C1068.46 257.028 1068.51 257.325 1068.58 257.617C1066.55 257.859 1064.48 258.09 1062.42 258.309C1058.34 248.943 1048.31 243.155 1037.77 244.867C1025.3 246.892 1016.83 258.646 1018.85 271.12C1020.17 279.234 1025.6 285.655 1032.67 288.594C1032.85 289.468 1033.01 290.324 1033.14 291.153C1033.16 291.281 1033.18 291.41 1033.2 291.539ZM1086.69 253.758C1086.76 254.155 1086.77 254.549 1086.75 254.934C1086.75 254.934 1086.75 254.934 1086.75 254.934C1086.59 257.285 1084.84 259.304 1082.41 259.698C1079.59 260.156 1076.93 258.24 1076.47 255.418C1076.14 253.347 1077.08 251.364 1078.72 250.274C1079.32 249.878 1080 249.6 1080.75 249.478C1083.58 249.02 1086.23 250.936 1086.69 253.758Z" fill="#00A99D" fill-opacity="0.12"/>
</svg>
