<svg width="181" height="181" viewBox="0 0 181 181" fill="none" xmlns="http://www.w3.org/2000/svg">
<circle cx="90.5" cy="90.5" r="90.5" fill="#575FC8"/>
<path d="M155.733 105.778H135.333H117.2H103.6V78.5781C103.6 73.1381 102.013 68.8315 98.6134 66.1115C93.8534 62.2581 87.7334 62.7115 86.6 62.7115H57.8134C51.24 62.7115 47.16 61.5781 45.5734 59.0849C43.76 56.3649 45.5734 52.5115 45.5734 52.5115C46.0268 51.6049 45.8 50.4715 45.12 49.5649C44.44 48.8849 43.08 48.8849 42.1734 49.3384C41.72 49.7918 28.12 57.2718 26.76 67.4718C26.2986 70.5469 26.9884 73.5169 28.8215 76.3126C28.8141 76.3126 28.8074 76.3118 28.8 76.3118C27.44 76.3118 26.5334 77.2184 26.5334 78.5784V106.286C23.8469 107.337 22 109.919 22 113.031V118.725C22 122.805 25.1734 125.978 29.2534 125.978H117.2H135.333H155.733C157.093 125.978 158 125.072 158 123.712V108.045C158 106.685 157.093 105.778 155.733 105.778ZM99.0666 80.8447V105.778H94.5332V80.8447H99.0666ZM85.4666 105.778V80.8447H90V105.778H85.4666ZM76.4 105.778V80.8447H80.9334V105.778H76.4ZM67.3334 105.778V80.8447H71.8668V105.778H67.3334ZM58.2666 105.778V80.8447H62.8V105.778H58.2666ZM49.2 105.778V80.8447H53.7334V105.778H49.2ZM40.1334 105.778V80.8447H44.6668V105.778H40.1334ZM31.52 68.1513C32.2 63.3913 36.5066 59.3112 39.9066 56.5912C39.9066 58.1778 40.5866 59.7647 41.4932 61.3512C43.9866 65.2047 49.6532 67.2447 57.8132 67.2447H86.6H86.8266C86.8266 67.2447 91.8132 66.7913 95.2132 69.5112C97.2532 71.0978 98.3866 73.3647 98.6132 76.3113H34.6934C32.2 73.5913 31.0666 70.8713 31.52 68.1513ZM32.2 80.1647C32.6534 80.6181 33.1066 80.8447 33.7866 80.8447H35.6V105.778H31.0666V79.073C31.4252 79.4403 31.7981 79.805 32.2 80.1647ZM26.5334 118.725V113.031C26.5334 111.445 27.6668 110.311 29.2534 110.311C29.2534 110.311 78.2652 110.311 114.933 110.311V121.445H29.2534C27.6666 121.445 26.5334 120.311 26.5334 118.725ZM119.467 121.445V110.311C124.874 110.311 129.333 110.311 133.067 110.311V121.445H119.467ZM153.467 121.445H137.6V110.311C141.136 110.311 153.467 110.311 153.467 110.311V121.445Z" fill="white"/>
<path d="M31.52 68.1513C32.2 63.3913 36.5066 59.3112 39.9066 56.5912C39.9066 58.1778 40.5866 59.7647 41.4932 61.3512C43.9866 65.2047 49.6532 67.2447 57.8132 67.2447H86.6H86.8266C86.8266 67.2447 91.8132 66.7913 95.2132 69.5112C97.2532 71.0978 98.3866 73.3647 98.6132 76.3113H34.6934C32.2 73.5913 31.0666 70.8713 31.52 68.1513Z" fill="white"/>
</svg>
