<svg width="181" height="181" viewBox="0 0 181 181" fill="none" xmlns="http://www.w3.org/2000/svg">
<circle cx="90.5" cy="90.5" r="90.5" fill="#575FC8"/>
<path d="M81.6528 69.8229C81.6528 74.7891 77.637 78.815 72.6833 78.815C67.7296 78.815 63.7139 74.7891 63.7139 69.8229C63.7139 64.8567 67.7296 60.8308 72.6833 60.8308C77.637 60.8308 81.6528 64.8567 81.6528 69.8229Z" fill="white"/>
<path d="M152.287 108.601C152.287 112.016 149.527 114.783 146.121 114.783C142.715 114.783 139.954 112.016 139.954 108.601C139.954 105.187 142.715 102.419 146.121 102.419C149.527 102.419 152.287 105.187 152.287 108.601Z" fill="white"/>
<path d="M121.987 35.9588C122.086 34.494 121.267 32.6211 120.598 31.0888C120.506 30.8797 120.418 30.6769 120.334 30.4824C119.493 28.5153 118.653 27.9533 118.933 29.6394C119.213 31.3254 118.372 34.4164 117.251 31.0444C116.13 27.6724 113.327 27.3914 114.728 28.7964C115.85 29.9204 115.196 31.7001 114.728 32.4495C114.211 33.2794 113.753 33.6426 113.355 33.9585C113.003 34.2384 112.697 34.4811 112.438 34.9784H101.156C100.826 33.3591 100.127 32.2102 99.052 31.7445C95.8115 30.3401 90.3902 35.6819 86.9432 43.6757C83.4962 51.6695 83.3288 59.2882 86.5693 60.6926C88.5448 61.5488 91.3308 59.8978 93.9858 56.6672L93.9858 70.8327C90.4048 72.0127 87.8193 75.3922 87.8193 79.377C87.8193 79.8065 87.8493 80.2288 87.9074 80.6422C86.6552 80.1872 85.3041 79.939 83.8952 79.939C77.3934 79.939 72.1227 85.223 72.1227 91.7412C72.1227 93.908 72.7052 95.9383 73.7216 97.6836C72.2031 99.5125 71.2256 101.809 71.0355 104.326C70.2991 104.181 69.538 104.105 68.7592 104.105C62.2575 104.105 56.9868 109.389 56.9868 115.908C56.9868 116.002 56.9879 116.097 56.9901 116.192C56.2724 116.006 55.5199 115.908 54.7444 115.908C50.6445 115.908 47.1871 118.665 46.1171 122.431C36.992 115.685 33.6447 101.733 33.1616 93.7082C26.1543 100.171 24.7527 113.378 25.033 114.221C25.2413 114.848 25.9141 115.009 27.0512 115.281C27.4442 115.375 27.8927 115.482 28.3966 115.627C28.0796 115.997 27.7228 116.288 27.3693 116.576C25.8474 117.817 24.3873 119.007 26.4345 126.305C29.3883 133.304 37.1117 137.227 44.6593 139.269C44.8269 144.087 48.776 147.942 53.6232 147.942C57.3875 147.942 60.6101 145.617 61.9407 142.322H106.41C107.741 145.617 110.963 147.942 114.728 147.942C118.128 147.942 121.086 146.045 122.607 143.249C122.587 143.499 122.576 143.752 122.576 144.008C122.576 148.974 126.592 153 131.545 153C136.499 153 140.515 148.974 140.515 144.008C140.515 140.13 138.067 136.826 134.635 135.563C135.859 134.026 136.591 132.078 136.591 129.958C136.591 125.25 132.982 121.387 128.386 120.998C128.973 119.801 129.303 118.455 129.303 117.032C129.303 113.622 127.41 110.656 124.621 109.131C126.462 107.484 127.621 105.088 127.621 102.419C127.621 101.656 127.526 100.914 127.348 100.207C129.233 98.5581 130.424 96.1321 130.424 93.4272C130.424 88.461 126.409 84.4351 121.455 84.4351C120.476 84.4351 119.534 84.5923 118.652 84.8829V76.286C118.652 74.4673 118.999 72.8749 119.521 71.5089H133.227C142.515 71.5089 150.045 63.9603 150.045 54.6487V51.8599C153.808 50.8331 156.421 48.4707 155.944 46.4553C155.448 44.3583 151.796 43.4311 147.787 44.3842C145.74 44.8709 143.995 45.7538 142.844 46.7806H127.86L121.987 35.9588Z" fill="white"/>
</svg>
