<svg width="181" height="181" viewBox="0 0 181 181" fill="none" xmlns="http://www.w3.org/2000/svg">
<circle cx="90.5" cy="90.5005" r="90.5" fill="#575FC8"/>
<g clip-path="url(#clip0_2707_4960)">
<path d="M143.314 134.729C143.608 134.8 143.906 134.834 144.203 134.834C145.047 134.834 145.876 134.553 146.553 134.02C147.466 133.3 148 132.201 148 131.038V51.7615C148 50.0069 146.798 48.4808 145.092 48.0701L115.472 40.9541C113.419 40.4609 111.739 41.7847 111.739 43.8958V123.301C111.739 125.412 113.418 127.543 115.471 128.036L143.314 134.729Z" fill="white"/>
<path d="M95.0384 123.851C94.511 122.793 93.4427 122.11 92.3169 122.11C91.9059 122.11 91.5113 122.203 91.1478 122.384C89.7525 123.081 89.2282 124.871 89.9786 126.375L97.1383 140.733C97.6653 141.79 98.7332 142.473 99.8598 142.473C100.271 142.473 100.665 142.381 101.03 142.2C102.424 141.503 102.949 139.713 102.198 138.208L95.0384 123.851Z" fill="white"/>
<path d="M86.8473 132.054L85.2025 128.757C83.5677 125.478 84.2387 121.665 86.5874 119.22L83.7885 113.608C81.2079 114.569 78.5126 115.077 75.7424 115.131V130.861C75.7424 132.972 77.4229 134.299 79.476 133.81L86.8473 132.054Z" fill="white"/>
<path d="M93.5571 96.6138C95.1934 91.7213 94.8272 86.4831 92.5238 81.8667C89.2328 75.2673 82.6024 71.1676 75.2227 71.1676C72.2219 71.1676 69.3277 71.852 66.6193 73.2031C57.0886 77.9573 53.2019 89.578 57.9557 99.1087C61.2471 105.708 67.8764 109.808 75.2561 109.808C78.2573 109.808 81.1522 109.123 83.8598 107.772C88.4763 105.47 91.9201 101.507 93.5571 96.6138Z" fill="white"/>
<path d="M106.238 43.8943C106.238 41.7832 104.557 40.4528 102.503 40.9376L79.4783 46.3724C77.4236 46.8572 75.7428 48.9813 75.7428 51.0924V65.8399C84.9499 66.0291 93.1775 71.2186 97.2999 79.4853C100.239 85.3784 100.707 92.063 98.6188 98.3072C96.8155 103.7 93.2877 108.205 88.5642 111.227L91.36 116.831C91.6748 116.794 91.9949 116.774 92.3177 116.774C95.4494 116.774 98.3931 118.617 99.8148 121.47L103.18 128.216C103.18 128.216 103.868 128.052 104.709 127.85C105.551 127.649 106.239 126.621 106.239 125.565V43.8943H106.238Z" fill="white"/>
<path d="M70.4055 66.3139V51.0924C70.4055 48.9813 68.7262 46.8503 66.6735 46.357L38.7047 39.6341C37.5685 39.36 36.371 39.6222 35.4532 40.345C34.5351 41.0677 34 42.1716 34 43.3401V122.931C34 124.692 35.2072 126.225 36.9195 126.637L66.6739 133.801C68.7262 134.295 70.4055 132.972 70.4055 130.861V114.668C63.0024 113.206 56.6426 108.434 53.1793 101.49C47.1123 89.3258 52.073 74.4931 64.2373 68.4266C66.2194 67.4382 68.2829 66.7392 70.4055 66.3139Z" fill="white"/>
</g>
<defs>
<clipPath id="clip0_2707_4960">
<rect width="114" height="114" fill="white" transform="translate(34 34.0005)"/>
</clipPath>
</defs>
</svg>
