<svg width="181" height="181" viewBox="0 0 181 181" fill="none" xmlns="http://www.w3.org/2000/svg">
<circle cx="90.5" cy="90.5" r="90.5" fill="#575FC8"/>
<path fill-rule="evenodd" clip-rule="evenodd" d="M78.5762 127.382C79.2406 126.242 79.4978 124.868 80.2529 121.111C80.6065 119.351 81.152 114.693 81.3138 108.092C81.8768 85.1153 83.0818 40.1848 103.237 26.8145L86.2642 123.222C85.9886 124.867 85.7989 126.641 87.3359 127.743C93.3931 129.04 97.933 134.4 97.933 140.814C97.933 148.199 91.9171 154.185 84.4962 154.185C77.0752 154.185 71.0593 148.199 71.0593 140.814C71.0593 136.617 73.003 132.872 76.0436 130.42C77.362 128.947 78.0818 128.23 78.5762 127.382ZM94.5738 140.814C94.5738 146.353 90.0619 150.842 84.4962 150.842C78.9304 150.842 74.4185 146.353 74.4185 140.814C74.4185 135.276 78.9304 130.787 84.4962 130.787C90.0619 130.787 94.5738 135.276 94.5738 140.814Z" fill="white"/>
<path fill-rule="evenodd" clip-rule="evenodd" d="M53.9858 96.6458C55.153 96.0229 56.5417 95.815 60.3398 95.1946C62.1182 94.9041 66.8134 94.5253 73.4451 94.5989C96.5288 94.8553 141.672 95.2527 155.807 75.5979L58.4339 89.1153C56.7724 89.3319 54.9853 89.4582 53.9334 87.8837C52.8465 81.7876 47.6276 77.062 41.1886 76.8334C33.7764 76.5703 27.5544 82.3657 27.2913 89.7779C27.0282 97.19 32.8236 103.412 40.2357 103.675C44.4489 103.825 48.2775 102.017 50.8458 99.0672C52.3711 97.8029 53.1171 97.1094 53.9858 96.6458ZM41.0695 80.1887C35.5104 79.9913 30.8438 84.3379 30.6465 89.897C30.4492 95.4561 34.7957 100.123 40.3548 100.32C45.9139 100.517 50.5804 96.1707 50.7778 90.6116C50.9751 85.0525 46.6286 80.386 41.0695 80.1887Z" fill="white"/>
<path fill-rule="evenodd" clip-rule="evenodd" d="M90.2206 116.755L121.216 147.751C124.402 150.936 129.567 150.936 132.753 147.751L152.076 128.427C152.873 127.63 152.873 126.339 152.076 125.543C151.28 124.746 149.989 124.746 149.192 125.543L136.158 138.577C134.596 140.139 132.063 140.139 130.501 138.577L128.715 136.791L144.577 120.928C145.374 120.132 145.374 118.84 144.577 118.044C143.781 117.248 142.49 117.248 141.693 118.044L125.831 133.907L121.216 129.292L137.079 113.429C137.875 112.633 137.875 111.342 137.079 110.545C136.282 109.749 134.991 109.749 134.195 110.545L118.332 126.408L113.717 121.793L129.58 105.931C130.376 105.134 130.376 103.843 129.58 103.047C128.784 102.25 127.492 102.25 126.696 103.047L110.833 118.909L106.219 114.295L122.081 98.4319C122.878 97.6355 122.878 96.3442 122.081 95.5478C121.932 95.3985 121.765 95.2772 121.588 95.1838C120.804 95.2996 120.018 95.4101 119.23 95.5157C119.224 95.5211 119.219 95.5266 119.213 95.5321C119.208 95.5373 119.202 95.5426 119.197 95.5478L103.334 111.411L98.7199 106.796L108.885 96.6311C106.805 96.8057 104.731 96.9529 102.671 97.0764L95.8358 103.912L92.9739 101.05L90.2206 116.755ZM96.9074 78.6135L99.5851 75.9357C100.382 75.1393 100.382 73.8481 99.5851 73.0516C99.147 72.6135 98.559 72.4164 97.9861 72.4603L96.9074 78.6135ZM83.2157 86.537C83.2096 86.6267 83.2036 86.7164 83.1976 86.806L82.9062 86.8464L83.2157 86.537ZM84.7834 69.9718C84.5094 72.1443 84.2667 74.3152 84.0509 76.4725L76.2237 84.2997L79.2745 87.3506L63.0662 89.6006L32.385 58.9194C29.1992 55.7337 29.1992 50.5686 32.385 47.3829L51.7086 28.0592C52.505 27.2628 53.7963 27.2628 54.5927 28.0592C55.3892 28.8557 55.3892 30.1469 54.5927 30.9434L41.5585 43.9776C39.9964 45.5397 39.9964 48.0724 41.5585 49.6345L43.3446 51.4207L59.2073 35.558C60.0038 34.7615 61.295 34.7615 62.0915 35.558C62.8879 36.3544 62.8879 37.6457 62.0915 38.4421L46.2288 54.3048L50.8434 58.9194L66.7061 43.0567C67.5025 42.2603 68.7938 42.2603 69.5902 43.0567C70.3866 43.8531 70.3866 45.1444 69.5902 45.9408L53.7275 61.8035L58.3421 66.4181L74.2048 50.5554C75.0012 49.759 76.2925 49.759 77.0889 50.5554C77.8853 51.3519 77.8854 52.6431 77.0889 53.4396L61.2262 69.3022L65.8408 73.9169L81.7035 58.0542C82.5 57.2577 83.7912 57.2577 84.5877 58.0542C85.3841 58.8506 85.3841 60.1419 84.5877 60.9383L68.725 76.801L73.3396 81.4156L84.7834 69.9718ZM82.6223 97.6749C82.4603 101.653 82.3541 105.397 82.2677 108.802L71.0936 97.628C74.599 97.6647 78.4818 97.6955 82.6223 97.6749ZM107.084 83.4345L107.019 83.499L100.321 84.4289L104.2 80.5504C104.996 79.7539 106.287 79.7539 107.084 80.5504C107.88 81.3468 107.88 82.638 107.084 83.4345Z" fill="white"/>
</svg>
